<?xml version="1.0" encoding="UTF-8"?>
<svg width="512" height="512" viewBox="0 0 512 512" fill="none" xmlns="http://www.w3.org/2000/svg">
    <!-- Книга -->
    <rect x="96" y="128" width="320" height="320" rx="16" fill="#4A5568"/>
    <rect x="96" y="128" width="320" height="40" rx="8" fill="#2D3748"/>
    <!-- Яблоко -->
    <path d="M256 96C290 96 320 126 320 160C320 194 290 224 256 224C222 224 192 194 192 160C192 126 222 96 256 96Z" fill="#E53E3E"/>
    <path d="M256 224C222 224 192 194 192 160C192 126 222 96 256 96" fill="#C53030"/>
    <!-- Листик -->
    <path d="M256 96C270 96 280 86 280 72C280 58 270 48 256 48C242 48 232 58 232 72C232 86 242 96 256 96Z" fill="#48BB78"/>
</svg> 